<svg class="svg-icon" style="width: 1em;height: 1em;vertical-align: middle;fill: #000;overflow: hidden;" viewBox="0 0 1024 1024" version="1.1" xmlns="http://www.w3.org/2000/svg"><path d="M887.72608 298.99776l-751.4624-93.93152c-18.6368-2.33472-33.86368 11.13088-33.86368 29.9008v554.07616c0 18.75968 15.22688 32.21504 33.87392 29.9008l751.4624-93.94176c18.6368-2.34496 33.86368-19.59936 33.86368-38.35904V337.36704c0-18.76992-15.22688-36.03456-33.87392-38.36928z m-34.39616 182.0672H682.67008V342.1696l170.65984 21.32992v117.56544z m-443.72992 0V308.03968l204.8 25.6v147.42528H409.6z m204.8 68.27008v141.01504l-204.8 25.6V549.33504h204.8zM341.32992 299.49952v181.56544H170.67008V278.1696l170.65984 21.32992zM170.67008 549.33504h170.65984v175.1552l-170.65984 21.34016V549.33504z m512 132.5056v-132.5056h170.65984v111.1552l-170.65984 21.3504z"  /></svg>