<svg class="svg-icon" style="width: 1.125em; height: 1em;vertical-align: middle;fill: #0ABAB5;overflow: hidden;" viewBox="0 0 1152 1024" version="1.1" xmlns="http://www.w3.org/2000/svg"><path d="M1146.3891 805.34l-279.58-640C856.8691 142.58 835.2091 128 811.3691 128h-195.18l4.9 46.32c1 9.44-6.42 17.68-15.92 17.68h-58.32c-9.5 0-16.92-8.24-15.92-17.68L535.8291 128h-195.18c-23.86 0-45.52 14.58-55.46 37.34L5.6091 805.34C-12.8909 847.72 16.6291 896 61.0891 896h393.68l20.62-195.36c1.72-16.28 15.44-28.64 31.82-28.64h137.6c16.38 0 30.1 12.36 31.82 28.64L697.2491 896h393.68c44.46 0 73.98-48.28 55.46-90.66zM520.8091 270.32a16 16 0 0 1 15.92-14.32h78.58c8.18 0 15.06 6.18 15.92 14.32l9.2 87.16c1.5 14.18-9.62 26.52-23.86 26.52h-81.08c-14.26 0-25.36-12.34-23.86-26.52l9.18-87.16zM631.2891 608h-110.58c-19 0-33.82-16.46-31.82-35.36l10.14-96c1.72-16.28 15.44-28.64 31.82-28.64h90.3c16.38 0 30.1 12.36 31.82 28.64l10.14 96c2 18.9-12.82 35.36-31.82 35.36z" fill="" /></svg>